<svg width="25" height="24" viewBox="0 0 25 24" fill="none" xmlns="http://www.w3.org/2000/svg">
<path d="M22.5709 13.875L20.5709 11.375C20.4772 11.2579 20.3583 11.1634 20.2231 11.0985C20.0879 11.0336 19.9399 10.9999 19.7899 11H13.7899V9H19.7899C20.8929 9 21.7899 8.103 21.7899 7V4C21.7899 2.897 20.8929 2 19.7899 2H5.78989C5.63992 1.99994 5.49186 2.03362 5.35667 2.09853C5.22148 2.16344 5.10262 2.25793 5.00889 2.375L3.00889 4.875C2.86706 5.05244 2.78979 5.27284 2.78979 5.5C2.78979 5.72716 2.86706 5.94756 3.00889 6.125L5.00889 8.625C5.10262 8.74207 5.22148 8.83656 5.35667 8.90147C5.49186 8.96638 5.63992 9.00006 5.78989 9H11.7899V11H5.78989C4.68689 11 3.78989 11.897 3.78989 13V16C3.78989 17.103 4.68689 18 5.78989 18H11.7899V22H13.7899V18H19.7899C19.9399 18.0001 20.0879 17.9664 20.2231 17.9015C20.3583 17.8366 20.4772 17.7421 20.5709 17.625L22.5709 15.125C22.7127 14.9476 22.79 14.7272 22.79 14.5C22.79 14.2728 22.7127 14.0524 22.5709 13.875ZM5.07089 5.5L6.26989 4H19.7899L19.7919 7H6.26989L5.07089 5.5ZM19.3099 16H5.78989V13H19.3099L20.5099 14.5L19.3099 16Z" fill="black"/>
</svg>
