<svg width="24" height="23" viewBox="0 0 24 23" fill="none" xmlns="http://www.w3.org/2000/svg">
<path d="M20.6699 0H2.83016C1.48662 0 0.397461 1.07452 0.397461 2.4V20C0.397461 21.3255 1.48662 22.4 2.83016 22.4H9.78614V14.7845H6.59323V11.2H9.78614V8.468C9.78614 5.3605 11.6613 3.644 14.5334 3.644C15.9089 3.644 17.3473 3.886 17.3473 3.886V6.936H15.7625C14.201 6.936 13.7139 7.892 13.7139 8.8725V11.2H17.1998L16.6423 14.7845H13.7139V22.4H20.6699C22.0135 22.4 23.1026 21.3255 23.1026 20V2.4C23.1026 1.07452 22.0135 0 20.6699 0V0Z" fill="white"/>
</svg>
