<svg width="23" height="22" viewBox="0 0 23 22" fill="none" xmlns="http://www.w3.org/2000/svg">
<path fill-rule="evenodd" clip-rule="evenodd" d="M16.7083 14.8127L22.2888 20.232C22.4921 20.4295 22.4921 20.7488 22.2888 20.9462L21.8605 21.3621C21.6572 21.5596 21.3284 21.5596 21.1251 21.3621L15.5446 15.9428C15.4494 15.8462 15.3932 15.7202 15.3932 15.5857V15.1572C13.7882 16.594 11.6469 17.4762 9.2892 17.4762C4.31864 17.4762 0.291138 13.5651 0.291138 8.73809C0.291138 3.91114 4.31864 0 9.2892 0C14.2598 0 18.2873 3.91114 18.2873 8.73809C18.2873 11.0276 17.3788 13.1071 15.895 14.6657H16.3406C16.479 14.6657 16.6088 14.7161 16.7083 14.8127ZM1.67552 8.73801C1.67552 12.8256 5.08008 16.1318 9.28927 16.1318C13.4985 16.1318 16.903 12.8256 16.903 8.73801C16.903 4.65043 13.4985 1.34424 9.28927 1.34424C5.08008 1.34424 1.67552 4.65043 1.67552 8.73801Z" fill="#2A3036"/>
</svg>
