<svg width="24" height="23" viewBox="0 0 24 23" fill="none" xmlns="http://www.w3.org/2000/svg">
<path fill-rule="evenodd" clip-rule="evenodd" d="M23.5086 2.4V20C23.5086 21.325 22.419 22.4 21.0759 22.4H3.23616C1.89311 22.4 0.803467 21.325 0.803467 20V2.4C0.803467 1.075 1.89311 0 3.23616 0H21.0759C22.419 0 23.5086 1.075 23.5086 2.4ZM10.2707 8.505L15.0956 11.21L10.2707 13.915V8.505ZM20.9948 6.805C21.38 8.235 21.38 11.215 21.38 11.215C21.38 11.215 21.38 14.195 20.9948 15.62C20.782 16.41 20.1586 17.005 19.3629 17.215C17.9286 17.6 12.156 17.6 12.156 17.6C12.156 17.6 6.38346 17.6 4.94919 17.22C4.15349 17.01 3.53011 16.415 3.31725 15.625C2.93208 14.195 2.93208 11.215 2.93208 11.215C2.93208 11.215 2.93208 8.23 3.31725 6.805C3.53011 6.015 4.15349 5.395 4.94919 5.185C6.38346 4.8 12.156 4.8 12.156 4.8C12.156 4.8 17.9286 4.8 19.3629 5.185C20.1586 5.395 20.782 6.015 20.9948 6.805Z" fill="white"/>
</svg>
