<svg width="24" height="23" viewBox="0 0 24 23" fill="none" xmlns="http://www.w3.org/2000/svg">
<path fill-rule="evenodd" clip-rule="evenodd" d="M21.1387 0H3.29891C1.95537 0 0.866211 1.07452 0.866211 2.4V20C0.866211 21.3255 1.95537 22.4 3.29891 22.4H21.1387C22.4822 22.4 23.5714 21.3255 23.5714 20V2.4C23.5714 1.07452 22.4822 0 21.1387 0ZM16.998 4.9625C17.703 5.23694 18.2611 5.7875 18.5392 6.483L18.5413 6.4835C18.9044 7.38743 18.8843 9.35555 18.8713 10.6315C18.8691 10.8426 18.8671 11.0347 18.8671 11.2C18.8671 11.3651 18.8691 11.5572 18.8713 11.7682L18.8713 11.7686C18.8843 13.0452 18.9044 15.0155 18.5413 15.9165C18.2631 16.612 17.705 17.1626 17 17.437C16.0847 17.7955 14.0932 17.7756 12.7995 17.7626C12.5846 17.7605 12.389 17.7585 12.2208 17.7585C12.0557 17.7585 11.8642 17.7603 11.654 17.7623H11.654C10.3599 17.7746 8.35666 17.7936 7.44108 17.437C6.7361 17.1626 6.17804 16.612 5.89986 15.9165C5.53675 15.0093 5.55585 13.0298 5.56816 11.7543C5.57015 11.5486 5.57195 11.3611 5.57195 11.1995C5.57195 11.0374 5.57014 10.8492 5.56814 10.6427C5.5558 9.36651 5.53665 7.38674 5.89783 6.483C6.17601 5.7875 6.73407 5.23694 7.43905 4.9625C8.35442 4.60401 10.3467 4.62395 11.6404 4.63689H11.6404H11.6404H11.6404H11.6404C11.8552 4.63904 12.0507 4.641 12.2188 4.641C12.3837 4.641 12.5751 4.63918 12.7851 4.63719H12.7851H12.7852H12.7853H12.7853C14.0791 4.62492 16.0824 4.60592 16.998 4.9625ZM9.51648 11.2007C9.51611 9.72785 10.7259 8.53355 12.2188 8.533C13.7117 8.53355 14.922 9.72712 14.9231 11.2C14.9231 12.6728 13.713 13.8668 12.2202 13.867C10.7273 13.8672 9.51685 12.6735 9.51648 11.2007ZM12.2188 15.3C9.92357 15.3 8.06293 13.4644 8.06293 11.2C8.06293 8.93563 9.92357 7.1 12.2188 7.1C14.514 7.1 16.3746 8.93563 16.3746 11.2C16.376 12.2878 15.9386 13.3314 15.1589 14.1006C14.3792 14.8698 13.3214 15.3013 12.2188 15.3ZM15.6494 7.29457C15.7997 7.65217 16.1536 7.8852 16.546 7.885L16.548 7.887C16.8053 7.88687 17.052 7.78565 17.2336 7.6057C17.4151 7.42575 17.5166 7.18189 17.5155 6.928C17.5155 6.54088 17.2791 6.19189 16.9165 6.0438C16.554 5.8957 16.1367 5.97767 15.8593 6.25147C15.582 6.52528 15.4991 6.93698 15.6494 7.29457ZM18.9609 17.85C19.9092 16.917 20.2056 15.7815 20.271 14.5C20.3465 13.178 20.3465 9.222 20.271 7.906C20.2092 6.6245 19.9071 5.4885 18.9609 4.5535C18.0147 3.6185 16.8642 3.3255 15.5653 3.261C14.2268 3.1865 10.2138 3.1865 8.87536 3.261C7.58147 3.322 6.43151 3.617 5.47972 4.55C4.52793 5.483 4.23499 6.6185 4.16961 7.9C4.0941 9.2195 4.0941 13.179 4.16961 14.5C4.23144 15.779 4.52996 16.915 5.47972 17.85C6.42948 18.785 7.5764 19.078 8.87536 19.1425C10.2138 19.217 14.2268 19.217 15.5653 19.1425C16.8627 19.0815 18.0127 18.783 18.9609 17.85Z" fill="white"/>
</svg>
