<svg width="27" height="26" viewBox="0 0 27 26" fill="none" xmlns="http://www.w3.org/2000/svg">
<path d="M18.6648 1.625C19.0958 1.625 19.5091 1.7962 19.8138 2.10095C20.1186 2.4057 20.2898 2.81902 20.2898 3.25V22.75C20.2898 23.181 20.1186 23.5943 19.8138 23.899C19.5091 24.2038 19.0958 24.375 18.6648 24.375H8.91479C8.48382 24.375 8.07049 24.2038 7.76575 23.899C7.461 23.5943 7.28979 23.181 7.28979 22.75V3.25C7.28979 2.81902 7.461 2.4057 7.76575 2.10095C8.07049 1.7962 8.48382 1.625 8.91479 1.625H18.6648ZM8.91479 0C8.05284 0 7.22619 0.34241 6.6167 0.951903C6.0072 1.5614 5.66479 2.38805 5.66479 3.25V22.75C5.66479 23.612 6.0072 24.4386 6.6167 25.0481C7.22619 25.6576 8.05284 26 8.91479 26H18.6648C19.5267 26 20.3534 25.6576 20.9629 25.0481C21.5724 24.4386 21.9148 23.612 21.9148 22.75V3.25C21.9148 2.38805 21.5724 1.5614 20.9629 0.951903C20.3534 0.34241 19.5267 0 18.6648 0L8.91479 0Z" fill="black"/>
<path d="M13.7898 22.75C14.2208 22.75 14.6341 22.5788 14.9388 22.274C15.2436 21.9693 15.4148 21.556 15.4148 21.125C15.4148 20.694 15.2436 20.2807 14.9388 19.976C14.6341 19.6712 14.2208 19.5 13.7898 19.5C13.3588 19.5 12.9455 19.6712 12.6407 19.976C12.336 20.2807 12.1648 20.694 12.1648 21.125C12.1648 21.556 12.336 21.9693 12.6407 22.274C12.9455 22.5788 13.3588 22.75 13.7898 22.75Z" fill="black"/>
</svg>
