<svg width="24" height="23" viewBox="0 0 24 23" fill="none" xmlns="http://www.w3.org/2000/svg">
<path fill-rule="evenodd" clip-rule="evenodd" d="M2.76741 0H20.6072C21.9502 0 23.0399 1.075 23.0399 2.4V20C23.0399 21.325 21.9502 22.4 20.6072 22.4H2.76741C1.42436 22.4 0.334717 21.325 0.334717 20V2.4C0.334717 1.075 1.42436 0 2.76741 0ZM18.139 8.365C18.139 8.225 18.139 8.08 18.1289 7.94C18.7776 7.475 19.3452 6.895 19.7963 6.24C19.1982 6.495 18.5495 6.68 17.8805 6.75C18.5698 6.345 19.0918 5.705 19.3402 4.945C18.7016 5.32 17.9819 5.595 17.2318 5.735C16.6236 5.095 15.7621 4.7 14.8042 4.7C12.7769 4.7 11.0893 6.505 11.5606 8.73C8.80354 8.59 6.34551 7.29 4.70851 5.3C4.41962 5.785 4.25744 6.345 4.25744 6.955C4.25562 8.05222 4.81131 9.07732 5.73733 9.685C5.19504 9.665 4.6781 9.515 4.23717 9.27V9.31C4.23717 10.905 5.3775 12.225 6.89793 12.53C6.37085 12.665 5.90965 12.665 5.39777 12.59C5.81842 13.89 7.04491 14.835 8.50453 14.865C7.3642 15.745 5.93499 16.265 4.37908 16.265C4.1054 16.265 3.84693 16.255 3.57832 16.225C5.04807 17.155 6.79657 17.695 8.68191 17.695C14.7941 17.695 18.139 12.7 18.139 8.365Z" fill="white"/>
</svg>
